# AST/ASF file generated using VICON BodyLanguage
# -----------------------------------------------
:version 1.10
:name VICON
:units
  mass 1.0
  length 0.45
  angle deg
:documentation
   .ast/.asf automatically generated from VICON data using
   VICON BodyBuilder and BodyLanguage model FoxedUp or BRILLIANT.MOD
:root
   order TX TY TZ RX RY RZ
   axis XYZ
   position 0 0 0  
   orientation 0 0 0 
:bonedata
  begin
     id 1 
     name lhipjoint
     direction 0.584852 -0.759097 0.285867 
     length 2.43633 
     axis 0 0 0  XYZ
  end
  begin
     id 2 
     name lfemur
     direction 0.34202 -0.939693 0  
     length 7.14704  
     axis 0 0 20  XYZ
    dof rx ry rz
    limits (-160.0 20.0)
           (-70.0 70.0)
           (-60.0 70.0)
  end
  begin
     id 3 
     name ltibia
     direction 0.342022 -0.939692 0   
     length 7.68483   
     axis 0 0 20   XYZ
    dof rx
    limits (-10.0 170.0)
  end
  begin
     id 4 
     name lfoot
     direction 0.0999605 -0.274639 0.956337   
     length 2.40452   
     axis -90 7.62852e-016 20   XYZ
    dof rx rz
    limits (-45.0 90.0)
           (-70.0 20.0)
  end
  begin
     id 5 
     name ltoes
     direction 1.53468e-011 -4.21881e-011 1   
     length 1.19837   
     axis -90 7.62852e-016 20   XYZ
    dof rx
    limits (-90.0 20.0)
  end
  begin
     id 6 
     name rhipjoint
     direction -0.569886 -0.769002 0.289597   
     length 2.40495  
     axis 0 0 0  XYZ 
  end
  begin
     id 7 
     name rfemur
     direction -0.34202 -0.939693 0   
     length 7.45086   
     axis 0 0 -20   XYZ
    dof rx ry rz
    limits (-160.0 20.0)
           (-70.0 70.0)
           (-70.0 60.0)
  end
  begin
     id 8 
     name rtibia
     direction -0.34202 -0.939693 0   
     length 7.76831   
     axis 0 0 -20   XYZ
    dof rx
    limits (-10.0 170.0)
 end
 begin
     id 9 
     name rfoot
     direction -0.0798572 -0.219406 0.97236   
     length 2.35911  
     axis -90 -7.62852e-016 -20   XYZ
    dof rx rz
    limits (-45.0 90.0)
           (-20.0 70.0)
  end
  begin
     id 10 
     name rtoes
     direction -1.53469e-011 -4.21728e-011 1   
     length 1.18261   
     axis -90 -7.62852e-016 -20   XYZ
    dof rx
    limits (-90.0 20.0)
  end
  begin
     id 11 
     name lowerback
     direction 0.0242088 0.999437 0.0232389   
     length 2.1561   
     axis 0 0 0   XYZ
    dof rx ry rz
    limits (-20.0 45.0)
           (-30.0 30.0)
           (-30.0 30.0)
  end
  begin
     id 12 
     name upperback
     direction -0.0356893 0.999013 -0.0264323   
     length 2.14431   
     axis 0 0 0   XYZ
    dof rx ry rz
    limits (-20.0 45.0)
           (-30.0 30.0)
           (-30.0 30.0)
  end
  begin
     id 13 
     name thorax
     direction -0.0472163 0.998194 -0.0371284   
     length 2.16169   
     axis 0 0 0   XYZ
    dof rx ry rz
    limits (-20.0 45.0)
           (-30.0 30.0)
           (-30.0 30.0)
  end
  begin
     id 14 
     name lowerneck
     direction 0.00863244 0.999921 0.00911972   
     length 1.58651   
     axis 0 0 0   XYZ
    dof rx ry rz
    limits (-20.0 45.0)
           (-30.0 30.0)
           (-30.0 30.0)
  end
  begin
     id 15 
     name upperneck
     direction 0.149523 0.979068 -0.138086   
     length 1.57486   
     axis 0 0 0   XYZ
    dof rx ry rz
    limits (-20.0 45.0)
           (-30.0 30.0)
           (-30.0 30.0)
  end
  begin
     id 16
     name head
     direction 0.0445219 0.997708 -0.0509576  
     length 1.6019  
     axis 0 0 0   XYZ
    dof rx ry rz
    limits (-20.0 45.0)
           (-30.0 30.0)
           (-30.0 30.0)
  end
  begin
     id 17 
     name lclavicle
     direction 0.911271 0.381667 -0.154644  
     length 3.80848  
     axis 0 0 0   XYZ
    dof ry rz
    limits (-20.0 10.0)
           (0.0 20.0)
  end
  begin
     id 18 
     name lhumerus
     direction 1 -4.49003e-011 2.1308e-027   
     length 5.19069   
     axis 180 -30 -90   XYZ
    dof rx ry rz
    limits (-60.0 90.0)
           (-90.0 90.0)
           (-90.0 90.0)
  end
  begin
     id 19
     name lradius
     direction 1 -4.48914e-011 4.01554e-027   
     length 3.30016   
     axis 180 -30 -90   XYZ
    dof rx
    limits (-10.0 170.0)
  end
  begin
     id 20
     name lwrist
     direction 1 -4.49003e-011 1.1934e-026   
     length 1.65008   
     axis -8.46377e-015 90 90   XYZ
    dof ry
    limits (-180.0 0.0)
 end
  begin
     id 21 
     name lhand
     direction 1 -4.49034e-011 2.38659e-026   
     length 0.707698   
     axis -1.52313e-014 90 90   XYZ
    dof rx rz
    limits (-90.0 90.0)
           (-45.0 45.0)
  end
  begin
     id 22 
     name lfingers
     direction 1 -4.48691e-011 4.77775e-026   
     length 0.570564   
     axis -3.04623e-014 90 90   XYZ
    dof rx
    limits (0.0 90.0)
  end
  begin
     id 23
     name lthumb
     direction 0.707107 -6.34832e-011 0.707107   
     length 0.819219   
     axis -90 45 -1.62303e-014   XYZ
    dof rx rz
    limits (-45.0 45.0)
           (-45.0 45.0)
  end
  begin
     id 24 
     name rclavicle
     direction -0.815579 0.573708 -0.0754329   
     length 3.54371  
     axis 0 0 0   XYZ 
    dof ry rz
    limits (-10.0 20.0)
           (-20.0 0.0)
  end
  begin
     id 25 
     name rhumerus
     direction -1 -4.48956e-011 3.05351e-028  
     length 5.23924   
     axis 180 30 90   XYZ
    dof rx ry rz
    limits (-90.0 60.0)
           (-90.0 90.0)
           (-90.0 90.0)
  end
  begin
     id 26 
     name rradius
     direction -1 -4.49013e-011 3.53849e-027   
     length 3.32953   
     axis 180 30 90   XYZ
    dof rx
    limits (-10.0 170.0)
  end
  begin
     id 27 
     name rwrist
     direction -1 -4.48901e-011 1.19374e-026   
     length 1.66477   
     axis -8.46377e-015 -90 -90   XYZ
    dof ry
    limits (-180.0 0.0)
  end
  begin
     id 28
     name rhand
     direction -1 -4.48877e-011 2.38764e-026   
     length 0.607414   
     axis -1.52313e-014 -90 -90   XYZ
    dof rx rz
    limits (-90.0 90.0)
           (-45.0 45.0)
  end
  begin
     id 29
     name rfingers
     direction -1 -4.48882e-011 4.77521e-026   
     length 0.489712   
     axis -3.04623e-014 -90 -90   XYZ
    dof rx
    limits (0.0 90.0)
  end
  begin
     id 30
     name rthumb
     direction -0.707107 -6.34974e-011 0.707107   
     length 0.703132   
     axis -90 -45 1.62303e-014   XYZ
    dof rx rz
    limits (-45.0 45.0)
           (-45.0 45.0)
  end
:hierarchy
  begin
    root lhipjoint rhipjoint lowerback
    lhipjoint lfemur
    lfemur ltibia
    ltibia lfoot
    lfoot ltoes
    rhipjoint rfemur
    rfemur rtibia
    rtibia rfoot
    rfoot rtoes
    lowerback upperback
    upperback thorax
    thorax lowerneck lclavicle rclavicle
    lowerneck upperneck
    upperneck head
    lclavicle lhumerus
    lhumerus lradius
    lradius lwrist
    lwrist lhand lthumb
    lhand lfingers
    rclavicle rhumerus
    rhumerus rradius
    rradius rwrist
    rwrist rhand rthumb
    rhand rfingers
  end

#!OML:ASF E:\VariousWalksJay\Project 1\Capture day 1\Session 1\Actor2.ASF
:FULLY-SPECIFIED
:DEGREES
153
root 26.1062 16.6555 48.0583 176.906 -50.734 -174.962
lowerback -3.81806 0.358876 6.58124
upperback 4.58599 0.0382806 -1.77033
thorax 6.99124 0.376429 -5.57392
lowerneck -8.31592 1.82344 4.01639
upperneck 6.76064 1.20163 6.55971
head 3.68514 0.913856 1.5373
rclavicle 3.51849e-014 -2.54444e-014
rhumerus -32.6939 -1.8862 -85.6485
rradius 32.6485
rwrist 0.853908
rhand -6.8586 -6.53572
rfingers 7.12502
rthumb 19.0068 -35.6271
lclavicle 3.51849e-014 -2.54444e-014
lhumerus -26.1057 -7.34575 80.6065
lradius 24.8713
lwrist 6.49743
lhand -5.56433 -9.86367
lfingers 7.12502
lthumb 20.2511 19.1006
rfemur -11.6576 -3.80171 22.8181
rtibia 32.5135
rfoot -18.649 -15.4158
rtoes -10.9662
lfemur -9.68968 5.77022 -16.7091
ltibia 27.3559
lfoot -16.5186 6.68301
ltoes -15.8277
154
root 26.1057 16.6529 48.0602 176.887 -50.6697 -174.888
lowerback -3.83667 0.36878 6.69362
upperback 4.56929 0.0443757 -1.78453
thorax 6.98703 0.385461 -5.65251
lowerneck -8.35814 1.83117 3.96583
upperneck 6.81904 1.20383 6.62458
head 3.71383 0.9185 1.57019
rclavicle -2.11706e-014 2.06736e-014
rhumerus -32.68 -1.89095 -85.6778
rradius 32.6655
rwrist 0.829317
rhand -7.05916 -6.3917
rfingers 7.12502
rthumb 18.8139 -35.5019
lclavicle -2.11706e-014 2.06736e-014
lhumerus -26.0722 -7.27206 80.566
lradius 24.8427
lwrist 6.43225
lhand -5.4422 -10.1945
lfingers 7.12502
lthumb 20.3685 18.7573
rfemur -11.7266 -3.97726 22.8489
rtibia 32.5284
rfoot -18.622 -15.1808
rtoes -10.7729
lfemur -9.74065 5.80477 -16.6768
ltibia 27.3612
lfoot -16.4892 6.75065
ltoes -15.8584
155
root 26.1027 16.6576 48.0561 176.936 -50.7009 -174.991
lowerback -3.93577 0.371387 6.5671
upperback 4.61832 0.0476419 -1.78071
thorax 7.09583 0.385386 -5.57739
lowerneck -8.31229 1.82896 3.97852
upperneck 6.78273 1.20708 6.60666
head 3.69192 0.917797 1.56054
rclavicle -2.55438e-014 3.97569e-015
rhumerus -32.6388 -1.90086 -85.6539
rradius 32.665
rwrist 0.861654
rhand -6.56131 -6.63368
rfingers 7.12502
rthumb 19.2927 -35.6967
lclavicle -2.55438e-014 3.97569e-015
lhumerus -26.0229 -7.34302 80.6226
lradius 24.8598
lwrist 6.47841
lhand -5.47727 -10.1388
lfingers 7.12502
lthumb 20.3348 18.8166
rfemur -11.6433 -3.67586 22.804
rtibia 32.5158
rfoot -18.7404 -15.4953
rtoes -10.94
lfemur -9.6757 5.78992 -16.7333
ltibia 27.3588
lfoot -16.5348 6.70646
ltoes -15.7499
156
root 26.0968 16.6548 48.0503 176.969 -50.5898 -175.016
lowerback -4.25803 0.476358 6.42934
upperback 4.75144 0.167105 -1.71081
thorax 7.44196 0.450258 -5.41568
lowerneck -8.36687 1.77206 4.02855
upperneck 6.73929 1.13815 6.49062
head 3.68866 0.881111 1.50864
rclavicle 8.75646e-014 -2.22639e-014
rhumerus -32.4718 -2.0114 -85.5069
rradius 32.6732
rwrist 0.811509
rhand -7.47489 -6.10819
rfingers 7.12502
rthumb 18.414 -35.2566
lclavicle 8.75646e-014 -2.22639e-014
lhumerus -25.776 -7.35608 80.7488
lradius 24.7938
lwrist 6.41141
lhand -5.46331 -10.174
lfingers 7.12502
lthumb 20.3482 18.78
rfemur -11.6508 -3.79456 22.7831
rtibia 32.5344
rfoot -18.7183 -15.2689
rtoes -10.7865
lfemur -9.62768 5.8186 -16.7142
ltibia 27.3913
lfoot -16.7243 6.65836
ltoes -15.4105
157
root 26.096 16.6548 48.0576 176.959 -50.4403 -174.944
lowerback -4.22541 0.518612 6.60181
upperback 4.71808 0.215676 -1.72882
thorax 7.3977 0.482098 -5.52747
lowerneck -8.36871 1.78532 3.97269
upperneck 6.78145 1.15294 6.55215
head 3.70339 0.890545 1.54101
rclavicle -4.92986e-014 -5.56597e-015
rhumerus -32.4616 -2.02512 -85.5171
rradius 32.681
rwrist 0.82627
rhand -7.85172 -5.86733
rfingers 7.12502
rthumb 18.0515 -35.0496
lclavicle -4.92986e-014 -5.56597e-015
lhumerus -25.8092 -7.45324 80.7645
lradius 24.8714
lwrist 6.49957
lhand -5.48804 -10.107
lfingers 7.12502
lthumb 20.3244 18.8495
rfemur -11.7368 -3.81228 22.8086
rtibia 32.5099
rfoot -18.58 -15.1845
rtoes -11.2657
lfemur -9.67936 5.82666 -16.7025
ltibia 27.3566
lfoot -16.6413 6.83379
ltoes -15.4099
158
root 26.1006 16.6518 48.0555 176.841 -50.6009 -174.885
lowerback -4.14142 0.458736 6.56599
upperback 4.72542 0.141264 -1.70722
thorax 7.34465 0.440578 -5.49129
lowerneck -8.42771 1.77123 3.96238
upperneck 6.88817 1.12613 6.53282
head 3.75324 0.881123 1.53795
rclavicle -3.42904e-014 1.66979e-014
rhumerus -32.4725 -2.00352 -85.5252
rradius 32.7117
rwrist 0.775382
rhand -7.64041 -6.05916
rfingers 7.12502
rthumb 18.2548 -35.2226
lclavicle -3.42904e-014 1.66979e-014
lhumerus -25.7772 -7.36658 80.7531
lradius 24.8273
lwrist 6.41834
lhand -5.48568 -10.1136
lfingers 7.12502
lthumb 20.3267 18.8426
rfemur -11.6581 -4.05135 22.8434
rtibia 32.5224
rfoot -18.5801 -15.0566
rtoes -10.8655
lfemur -9.67431 5.80791 -16.6672
ltibia 27.3858
lfoot -16.5618 6.82528
ltoes -15.7338
159
root 26.0981 16.6568 48.0514 176.889 -50.6311 -174.986
lowerback -4.23789 0.461806 6.43412
upperback 4.7861 0.144704 -1.68943
thorax 7.46441 0.439903 -5.39815
lowerneck -8.44245 1.77232 3.91301
upperneck 6.89397 1.13285 6.53831
head 3.75776 0.884247 1.54933
rclavicle 6.95746e-016 1.03368e-014
rhumerus -32.4014 -2.02784 -85.4611
rradius 32.7333
rwrist 0.787427
rhand -8.28394 -5.70997
rfingers 7.12502
rthumb 17.6356 -34.9302
lclavicle 6.95746e-016 1.03368e-014
lhumerus -25.6712 -7.34919 80.8083
lradius 24.8082
lwrist 6.3956
lhand -5.46059 -10.1262
lfingers 7.12502
lthumb 20.3508 18.8275
rfemur -11.5736 -3.72362 22.8049
rtibia 32.4991
rfoot -18.8223 -15.3665
rtoes -10.4491
lfemur -9.61411 5.82885 -16.7219
ltibia 27.3883
lfoot -16.5827 6.76816
ltoes -15.7374
160
root 26.0992 16.6547 48.0488 176.836 -50.6559 -174.931
lowerback -4.17886 0.427139 6.51769
upperback 4.74085 0.100783 -1.7306
thorax 7.37653 0.420227 -5.49352
lowerneck -8.42703 1.79438 3.93315
upperneck 6.98882 1.14842 6.57438
head 3.78834 0.895944 1.56055
rclavicle -6.79844e-014 -1.59028e-015
rhumerus -32.451 -2.00998 -85.5557
rradius 32.7469
rwrist 0.784973
rhand -8.24886 -5.70478
rfingers 7.12502
rthumb 17.6694 -34.9219
lclavicle -6.79844e-014 -1.59028e-015
lhumerus -25.759 -7.38085 80.738
lradius 24.8608
lwrist 6.44752
lhand -5.53281 -10.0702
lfingers 7.12502
lthumb 20.2814 18.8909
rfemur -11.551 -3.84847 22.8445
rtibia 32.478
rfoot -18.7601 -15.2605
rtoes -10.458
lfemur -9.60122 5.80477 -16.6582
ltibia 27.3852
lfoot -16.6142 6.69888
ltoes -15.5018
161
root 26.0987 16.6545 48.0473 176.775 -50.6251 -174.881
lowerback -4.02631 0.401257 6.64182
upperback 4.65138 0.0749569 -1.78534
thorax 7.18976 0.407273 -5.62331
lowerneck -8.42476 1.82581 3.94948
upperneck 7.14174 1.17252 6.60418
head 3.84207 0.913714 1.57232
rclavicle 5.87409e-014 -1.66979e-014
rhumerus -32.5865 -1.97552 -85.668
rradius 32.7771
rwrist 0.798178
rhand -7.84702 -5.97609
rfingers 7.12502
rthumb 18.056 -35.158
lclavicle 5.87409e-014 -1.66979e-014
lhumerus -25.9229 -7.43004 80.6619
lradius 24.9287
lwrist 6.54872
lhand -5.54338 -10.1034
lfingers 7.12502
lthumb 20.2713 18.8588
rfemur -11.5074 -3.75835 22.8868
rtibia 32.4448
rfoot -18.1916 -15.687
rtoes -13.5153
lfemur -9.52756 5.74805 -16.6131
ltibia 27.3398
lfoot -16.6341 6.73908
ltoes -15.465
